<mxfile host="Electron" modified="2025-03-21T23:23:25.442Z" agent="Mozilla/5.0 (Windows NT 10.0; Win64; x64) AppleWebKit/537.36 (KHTML, like Gecko) draw.io/21.6.8 Chrome/114.0.5735.289 Electron/25.5.0 Safari/537.36" etag="zXfovdmtWvKjfrx3tK_L" version="21.6.8" type="device">
  <diagram name="Page-1" id="9B4i3qryYxx1sSBR8InK">
    <mxGraphModel dx="1658" dy="820" grid="1" gridSize="10" guides="1" tooltips="1" connect="1" arrows="1" fold="1" page="1" pageScale="1" pageWidth="850" pageHeight="1100" math="0" shadow="0">
      <root>
        <mxCell id="0" />
        <mxCell id="1" parent="0" />
        <mxCell id="qBhpJKWXyx8tivIu86Tm-1" value="Email" style="swimlane;fontStyle=1;align=center;verticalAlign=top;childLayout=stackLayout;horizontal=1;startSize=26.375;horizontalStack=0;resizeParent=1;resizeParentMax=0;resizeLast=0;collapsible=0;marginBottom=0;" vertex="1" parent="1">
          <mxGeometry x="20" y="20" width="371" height="216.375" as="geometry" />
        </mxCell>
        <mxCell id="qBhpJKWXyx8tivIu86Tm-2" value="+Long id" style="text;strokeColor=none;fillColor=none;align=left;verticalAlign=top;spacingLeft=4;spacingRight=4;overflow=hidden;rotatable=0;points=[[0,0.5],[1,0.5]];portConstraint=eastwest;" vertex="1" parent="qBhpJKWXyx8tivIu86Tm-1">
          <mxGeometry y="26.375" width="371" height="26" as="geometry" />
        </mxCell>
        <mxCell id="qBhpJKWXyx8tivIu86Tm-3" value="+String to" style="text;strokeColor=none;fillColor=none;align=left;verticalAlign=top;spacingLeft=4;spacingRight=4;overflow=hidden;rotatable=0;points=[[0,0.5],[1,0.5]];portConstraint=eastwest;" vertex="1" parent="qBhpJKWXyx8tivIu86Tm-1">
          <mxGeometry y="52.375" width="371" height="26" as="geometry" />
        </mxCell>
        <mxCell id="qBhpJKWXyx8tivIu86Tm-4" value="+String from" style="text;strokeColor=none;fillColor=none;align=left;verticalAlign=top;spacingLeft=4;spacingRight=4;overflow=hidden;rotatable=0;points=[[0,0.5],[1,0.5]];portConstraint=eastwest;" vertex="1" parent="qBhpJKWXyx8tivIu86Tm-1">
          <mxGeometry y="78.375" width="371" height="26" as="geometry" />
        </mxCell>
        <mxCell id="qBhpJKWXyx8tivIu86Tm-5" value="+String subject" style="text;strokeColor=none;fillColor=none;align=left;verticalAlign=top;spacingLeft=4;spacingRight=4;overflow=hidden;rotatable=0;points=[[0,0.5],[1,0.5]];portConstraint=eastwest;" vertex="1" parent="qBhpJKWXyx8tivIu86Tm-1">
          <mxGeometry y="104.375" width="371" height="26" as="geometry" />
        </mxCell>
        <mxCell id="qBhpJKWXyx8tivIu86Tm-6" value="+String body" style="text;strokeColor=none;fillColor=none;align=left;verticalAlign=top;spacingLeft=4;spacingRight=4;overflow=hidden;rotatable=0;points=[[0,0.5],[1,0.5]];portConstraint=eastwest;" vertex="1" parent="qBhpJKWXyx8tivIu86Tm-1">
          <mxGeometry y="130.375" width="371" height="26" as="geometry" />
        </mxCell>
        <mxCell id="qBhpJKWXyx8tivIu86Tm-7" style="line;strokeWidth=1;fillColor=none;align=left;verticalAlign=middle;spacingTop=-1;spacingLeft=3;spacingRight=3;rotatable=0;labelPosition=right;points=[];portConstraint=eastwest;strokeColor=inherit;" vertex="1" parent="qBhpJKWXyx8tivIu86Tm-1">
          <mxGeometry y="156.375" width="371" height="8" as="geometry" />
        </mxCell>
        <mxCell id="qBhpJKWXyx8tivIu86Tm-8" value="+sendEmail(String to, String subject, String body)" style="text;strokeColor=none;fillColor=none;align=left;verticalAlign=top;spacingLeft=4;spacingRight=4;overflow=hidden;rotatable=0;points=[[0,0.5],[1,0.5]];portConstraint=eastwest;" vertex="1" parent="qBhpJKWXyx8tivIu86Tm-1">
          <mxGeometry y="164.375" width="371" height="26" as="geometry" />
        </mxCell>
        <mxCell id="qBhpJKWXyx8tivIu86Tm-9" value="+getEmailById(Long id)" style="text;strokeColor=none;fillColor=none;align=left;verticalAlign=top;spacingLeft=4;spacingRight=4;overflow=hidden;rotatable=0;points=[[0,0.5],[1,0.5]];portConstraint=eastwest;" vertex="1" parent="qBhpJKWXyx8tivIu86Tm-1">
          <mxGeometry y="190.375" width="371" height="26" as="geometry" />
        </mxCell>
      </root>
    </mxGraphModel>
  </diagram>
</mxfile>
